<svg width="17" height="57" viewBox="0 0 17 57" fill="none" xmlns="http://www.w3.org/2000/svg">
<path d="M15.1179 53.8085L9.79993 56.2565C8.70707 56.7583 7.41625 56.2737 6.91804 55.1736C3.05348 46.6649 1.15779 37.5099 1.22664 28.3684C1.29579 19.2272 3.32662 10.1059 7.31479 1.66392C7.82965 0.56802 9.12953 0.0991744 10.2182 0.617131L14.8444 2.83023C14.1912 4.1329 13.5893 5.46653 13.0361 6.82556L10.356 5.54337C7.23055 12.8474 5.63622 20.6274 5.57764 28.4126C5.51932 36.2003 6.99538 44.0016 10.0083 51.3452L13.27 49.8434C13.8365 51.1921 14.4515 52.5153 15.1176 53.8079L15.1179 53.8085Z" fill="#73D258"/>
</svg>
