<svg width="22" height="83" viewBox="0 0 22 83" fill="none" xmlns="http://www.w3.org/2000/svg">
<path d="M21.0697 78.345L13.2892 81.9267C11.6903 82.6607 9.8017 81.9518 9.0728 80.3422C3.4187 67.8936 0.645201 54.4992 0.745933 41.1247C0.847101 27.7506 3.81832 14.4056 9.65326 2.05441C10.4065 0.451043 12.3083 -0.23491 13.9011 0.522895L20.6695 3.76078C19.7139 5.66668 18.8332 7.61785 18.0239 9.6062L14.1028 7.73028C9.53001 18.4165 7.19742 29.7991 7.11171 41.1894C7.02639 52.5831 9.18594 63.997 13.594 74.7411L18.3661 72.5439C19.1949 74.5171 20.0947 76.453 21.0693 78.3441L21.0697 78.345Z" fill="#73D258"/>
</svg>
