<svg width="21" height="72" viewBox="0 0 21 72" fill="none" xmlns="http://www.w3.org/2000/svg">
<path opacity="0.2" d="M20.3285 68.2204L12.548 71.3397C10.949 71.979 9.06049 71.3616 8.3316 69.9598C2.67749 59.118 -0.096009 47.4527 0.00472253 35.8045C0.105891 24.1568 3.07712 12.5344 8.91206 1.77757C9.66533 0.381174 11.5671 -0.216231 13.16 0.443744L19.9283 3.26368C18.9727 4.92356 18.092 6.62287 17.2827 8.35455L13.3616 6.72078C8.78881 16.0276 6.45621 25.9409 6.37051 35.8609C6.28518 45.7839 8.44474 55.7244 12.8528 65.0816L17.6249 63.1681C18.4537 64.8866 19.3535 66.5726 20.3281 68.2196L20.3285 68.2204Z" fill="#C5C6C6"/>
</svg>
