<svg width="21" height="72" viewBox="0 0 21 72" fill="none" xmlns="http://www.w3.org/2000/svg">
<path opacity="0.2" d="M21 67.9002L13.2857 71.1418C11.7003 71.8062 9.79921 71.2187 9.04127 69.8286C3.16255 59.0778 0.146819 47.4581 0.00520559 35.8103C-0.135963 24.1629 2.59298 12.4956 8.20317 1.64844C8.92726 0.240387 10.8163 -0.386933 12.4226 0.247802L19.2485 2.96047C18.3276 4.63515 17.4824 6.34808 16.7093 8.09225L12.7548 6.52063C8.3764 15.898 6.25043 25.8466 6.37111 35.7662C6.49224 45.689 8.85824 55.5938 13.4602 64.8799L18.1918 62.8913C19.0562 64.5965 19.9909 66.268 20.9995 67.8994L21 67.9002Z" fill="white"/>
</svg>
