<svg width="300" height="300" viewBox="0 0 300 300" fill="none" xmlns="http://www.w3.org/2000/svg">
<path d="M227.243 72.3171L234.493 63.6882C236.205 61.6454 239.251 61.3747 241.298 63.0842C257.086 76.3137 269.536 92.6822 278.033 110.879C286.535 129.084 291.091 149.125 291.091 169.689C291.091 172.357 288.924 174.52 286.252 174.52H274.958C275.02 172.916 275.061 171.307 275.061 169.688C275.061 168.069 275.021 166.461 274.958 164.857H281.323C280.671 147.413 276.506 130.467 269.263 114.956C262.016 99.4353 251.693 85.3534 238.735 73.6488L234.645 78.5168C232.262 76.3548 229.79 74.2905 227.243 72.3171Z" fill="#FECC00"/>
<path d="M93.0525 61.3343L87.4534 49.6709C86.3058 47.274 87.3206 44.3997 89.7216 43.2538C108.291 34.3656 128.361 29.8061 148.479 29.592C168.597 29.3785 188.75 33.5045 207.485 41.9866C209.918 43.0814 211.001 45.9375 209.905 48.3661L205.219 58.6863C202.327 57.2939 199.368 56.016 196.355 54.8472L199.07 48.8683C182.873 42.2485 165.689 39.0342 148.556 39.2167C131.417 39.3998 114.309 42.977 98.2692 49.9348L101.704 57.0886C98.7587 58.3954 95.8715 59.8087 93.0538 61.3337L93.0525 61.3343Z" fill="#C5C6C6"/>
<path d="M28.5956 176.734L13.9142 176.978C11.2529 177.019 9.0609 174.898 9.01909 172.241C8.67859 151.677 12.9001 131.566 21.0958 113.23C29.2921 94.8891 41.4652 78.3166 57.0225 64.8366C59.0365 63.0962 62.0835 63.3163 63.8264 65.3275L72.4988 75.307C70.033 77.3734 67.6495 79.5339 65.3536 81.7841L59.7559 75.3427C46.9841 87.2674 36.891 101.52 29.9037 117.156C22.9136 132.794 19.0292 149.815 18.6684 167.271L28.423 167.11C28.4055 167.968 28.3906 168.826 28.3906 169.688C28.3906 172.053 28.4648 174.402 28.5963 176.734H28.5956Z" fill="#FECC00"/>
<path d="M105.497 283.893L99.7751 297.095C98.7212 299.534 95.8859 300.658 93.4438 299.605C74.5368 291.433 57.9243 279.297 44.5726 264.278C31.2121 249.25 21.111 231.348 15.2341 211.656C14.4722 209.103 15.9279 206.415 18.4847 205.654L32.5458 201.469C33.3792 204.593 34.3326 207.667 35.4006 210.688L25.9623 213.497C31.5789 230.045 40.4178 245.103 51.7926 257.898C63.1782 270.705 77.1044 281.257 92.8814 288.781L96.7153 279.936C99.5809 281.365 102.51 282.685 105.498 283.893L105.497 283.893Z" fill="#C5C6C6"/>
<path d="M207.036 96.0183C208.874 93.9204 212.068 93.7076 214.169 95.543C216.27 97.3784 216.483 100.568 214.645 102.665L153.755 172.051C151.917 174.149 148.723 174.362 146.622 172.527C146.484 172.405 146.353 172.278 146.231 172.146L146.226 172.151L100.047 122.072C98.1545 120.018 98.2867 116.82 100.344 114.93C102.401 113.04 105.604 113.172 107.496 115.226L149.862 161.169L207.036 96.0177L207.036 96.0183Z" fill="#54AF3A"/>
<path d="M119.563 12.9016C116.954 13.4329 114.407 11.7516 113.875 9.146C113.343 6.54036 115.026 3.99666 117.636 3.46544C123.253 2.3168 128.917 1.45364 134.604 0.877973C140.38 0.294229 146.094 0 151.726 0C156.84 0 162.076 0.249118 167.414 0.742642C172.682 1.23011 177.883 1.95322 182.996 2.90862C185.615 3.39811 187.342 5.91689 186.852 8.53264C186.362 11.1484 183.839 12.8727 181.22 12.3832C176.315 11.4668 171.416 10.7814 166.545 10.3303C161.748 9.88663 156.803 9.66242 151.726 9.66242C146.23 9.66242 140.831 9.93106 135.55 10.465C130.182 11.0077 124.846 11.821 119.565 12.901L119.563 12.9016Z" fill="#5B5B5B"/>
</svg>
