<svg width="100" height="100" viewBox="0 0 100 100" fill="none" xmlns="http://www.w3.org/2000/svg">
<path fill-rule="evenodd" clip-rule="evenodd" d="M17.3548 29.9481C17.3548 31.6566 18.0254 32.6161 18.5826 34.0132C18.7377 34.4013 18.9046 34.8711 19.0857 35.252C17.0596 36.6208 14.1393 39.663 12.7744 41.498C12.1947 42.2776 12.4868 42.0389 9.96312 41.0271C9.1973 40.7201 8.31784 40.2973 7.28852 40.2973C5.86376 40.2973 4.8552 40.782 4.02705 41.4054C3.14725 42.0681 2.70793 42.9111 2.25079 44.0122L0.335643 48.6775C-0.334497 50.3752 0.125989 53.1584 1.60876 54.3068C2.07693 54.6695 2.47744 55.0148 3.03826 55.2582C4.12967 55.7313 5.34036 56.1013 6.391 56.6623C6.23037 57.3579 6.19132 58.1136 6.13028 58.9218C6.01655 60.4289 5.92169 62.3526 6.11639 63.8599C6.22514 64.6996 6.2182 65.487 6.391 66.2352C5.68655 66.4006 4.87775 66.8469 4.19266 67.122C3.51844 67.3928 2.65106 67.7329 2.12137 68.1374C1.55255 68.5717 1.01885 69.1283 0.663849 69.7715C-0.799477 72.42 0.459425 74.5513 1.53588 77.0839C2.178 78.5941 2.67558 80.182 3.87483 81.2574C4.75683 82.0485 6.00936 82.4706 7.41672 82.4706C8.66426 82.4706 10.0844 81.7014 11.1816 81.2235C11.5948 81.0433 11.982 80.9227 12.3537 80.724C12.968 81.6499 13.8317 82.7032 14.6139 83.4891C16.0281 84.9117 17.4188 86.3897 19.0857 87.516C18.7041 88.2435 18.4173 89.1092 18.0967 89.8815C17.6596 90.9342 17.3548 91.6517 17.3548 92.9492C17.3548 94.0491 17.8315 95.2932 18.5239 96.0389C19.2791 96.8526 20.0546 97.3408 21.1097 97.7639C22.7512 98.422 25.7915 99.9996 27.4851 99.9996C29.76 99.9996 31.4084 98.6086 32.1647 96.8939C32.324 96.5326 32.4568 96.1602 32.616 95.7967C33.7265 93.263 33.1255 93.5165 34.5567 93.7062C37.9912 94.1618 40.1281 94.2944 43.065 93.5959C43.2112 94.2285 43.7104 95.2026 43.9542 95.8036C44.6027 97.3997 45.0739 98.4655 46.5941 99.35C48.2197 100.296 49.9044 100.094 51.5655 99.39C53.1191 98.7313 56.6373 97.4752 57.668 96.4262C58.684 95.3928 59.3594 94.0134 59.1502 91.9867C59.0739 91.2474 57.9135 88.4036 57.4911 87.5158C60.499 85.4835 62.9359 82.8991 64.2232 80.7888C64.7363 80.9091 66.0965 81.5362 66.6379 81.7811L67.8691 82.2856C68.9824 82.6315 70.0389 82.5598 71.125 82.1885C71.629 82.0161 72.1058 81.714 72.4857 81.4271C73.3641 80.764 73.8537 79.9212 74.2616 78.885L76.1274 74.3634C77.2524 71.8471 76.0994 68.9482 73.7635 67.671C73.0215 67.2656 69.5448 65.878 68.8772 65.615C66.4009 64.6398 65.114 68.0799 67.365 69.081L69.3987 69.9401C70.0299 70.2152 71.8647 70.8503 72.342 71.2398C73.2259 71.9609 72.5808 73.0413 72.2474 73.8773C72.0299 74.4241 71.8114 74.9261 71.5881 75.4762C71.3862 75.9737 71.1645 76.4922 70.9336 77.0149C70.3877 78.2491 70.1053 79.1784 68.4767 78.438L66.8979 77.7667C66.3754 77.5585 64.22 76.5195 63.7102 76.5195C61.9715 76.5195 61.9113 77.5969 60.7463 79.0272C58.9205 81.2831 57.563 82.4496 55.3486 84.384C54.4941 85.0301 53.2595 85.5251 53.2595 86.8042C53.2595 87.4013 54.0616 89.1163 54.3127 89.7518C54.5241 90.2868 55.4393 92.2639 55.4393 92.6904C55.4393 93.0036 55.2693 93.4059 55.1056 93.5828C54.8715 93.836 54.7098 93.9202 54.3682 94.0675C52.9331 94.6682 51.4986 95.2701 50.0627 95.8692C48.8766 96.3639 48.2416 96.4241 47.6172 94.8249L45.9244 90.7113C45.2832 89.1488 43.895 89.5546 42.9919 89.7057C39.9267 90.2195 36.7055 90.2287 33.6398 89.715C33.2449 89.6489 32.7745 89.5208 32.3576 89.5208C30.9774 89.5208 30.6588 90.6904 30.2402 91.6538C29.8858 92.4689 28.8787 95.2251 28.5236 95.6789C27.7614 96.6532 26.5879 95.8946 25.7356 95.5549C25.0302 95.2737 21.8742 94.0532 21.5025 93.6802C20.7905 92.9656 21.308 91.9252 21.652 91.1398C21.9907 90.3661 23.3173 87.4675 23.3173 86.8044C23.3173 85.4098 21.6939 84.8795 20.2256 83.5845C18.2042 81.6974 16.596 80.2712 15.0343 77.9549C14.4199 77.0438 14.0732 76.5197 12.8664 76.5197C12.4772 76.5197 11.5855 76.9559 11.2621 77.1001L8.18621 78.3956C6.66626 79.0059 6.28127 78.6247 5.69521 77.1565C5.33938 76.2866 3.82606 72.9369 3.82606 72.1859C3.82606 71.0947 5.3862 70.6984 6.24434 70.3562C6.6027 70.2132 6.94773 70.0713 7.28664 69.9202C8.07493 69.5688 9.53548 69.1454 10.0567 68.4459C10.6328 67.6728 10.3506 66.9096 10.2006 66.0784C9.72299 63.4316 9.83705 61.5275 9.9172 58.9257C9.98207 56.8269 11.0269 55.1513 9.74162 53.9932C9.2576 53.557 5.15212 52.103 4.43876 51.6456C3.27414 50.8982 4.08236 49.5601 4.45902 48.6327C4.76664 47.8744 5.86916 44.7822 6.34231 44.388C7.11784 43.7419 7.87941 44.2478 8.68902 44.576C9.14885 44.7626 9.61154 44.9585 10.0916 45.1661C10.803 45.4742 12.4001 46.2479 13.1229 46.2479C14.4689 46.2479 14.9606 44.8146 15.7714 43.8102C17.6819 41.4438 19.8136 39.257 22.3556 37.5804C23.7873 36.6362 23.3397 35.6709 22.8321 34.3829C22.4652 33.4512 21.1375 30.6542 21.1375 30.0125C21.1375 29.2708 21.652 28.9008 22.2356 28.6625L25.6799 27.2214C26.5788 26.8562 27.6622 26.1385 28.4973 27.0507C28.7192 27.2936 28.834 27.654 28.9774 27.9892L30.6526 32.056C31.1444 33.257 32.7661 33.6568 33.6908 32.7158C34.5822 31.809 34.2591 30.9692 33.8406 29.9395C33.6473 29.4627 33.482 29.0419 33.2823 28.5622C32.902 27.6492 32.5753 26.7079 32.1537 25.82C31.4115 24.2567 29.7892 22.7681 27.4849 22.7681C26.1325 22.7681 25.1501 23.347 24.1607 23.7483C23.1536 24.1562 22.1366 24.6124 21.1275 25.022C19.4858 25.6889 18.39 26.478 17.729 28.1266C17.5437 28.5886 17.3546 29.2842 17.3546 29.9479L17.3548 29.9481Z" fill="#4F4F4E"/>
<path fill-rule="evenodd" clip-rule="evenodd" d="M90.2102 13.3891C90.1012 13.6253 88.5336 15.1374 88.2402 15.4321C87.7096 15.9643 86.6143 16.7789 87.1224 18.1035C87.2627 18.4698 87.6424 18.9622 87.8677 19.3551C88.9923 21.3144 89.6564 22.928 90.19 25.1617C90.352 25.8409 90.3468 26.1856 90.747 26.6688C91.4612 27.5307 92.802 27.3012 94.1655 27.3012C96.7016 27.3012 96.2432 26.64 96.2573 31.2418C96.2604 32.1692 96.2665 32.3188 95.3207 32.3132C94.5263 32.3088 91.9874 32.2123 91.431 32.4366C90.3451 32.874 90.3507 33.93 90.0464 35.1088C89.5216 37.1406 88.6 39.183 87.5707 40.7584C86.9059 41.7763 86.7112 42.623 87.7169 43.6334C88.4075 44.327 89.0532 44.9701 89.7413 45.666C90.5768 46.5113 90.5465 46.3384 88.9744 47.9319C88.6283 48.2828 88.3268 48.5842 87.9781 48.932C86.738 50.1688 87.1361 50.1131 84.7594 47.717C84.2474 47.2008 83.4228 46.0751 82.1264 46.5833C81.7481 46.7315 81.2788 47.0973 80.8824 47.3357C79.5395 48.1432 78.1904 48.7373 76.6865 49.2401C75.8134 49.5322 74.198 49.7633 73.6278 50.2374C72.7579 50.9596 72.986 52.2948 72.986 53.6866C72.986 56.2469 73.6541 55.7934 69.096 55.8087C68.1482 55.8118 68.0221 55.835 68.0273 54.8517C68.0317 54.0031 68.1441 51.5927 67.8901 50.9573C67.4557 49.8702 66.5105 49.852 65.2704 49.5308C63.12 48.9734 61.2925 48.0684 59.6544 47.0427C58.4679 46.2998 57.797 46.1856 56.8145 47.1821C56.1272 47.8791 55.4785 48.5193 54.7915 49.2161C54.4494 49.5633 54.1274 50.0642 53.5519 49.5102C52.9511 48.9318 50.5581 46.7794 50.7789 46.2151C50.8518 46.0281 52.4416 44.5073 52.739 44.1704C53.2532 43.5878 54.44 42.8673 53.8456 41.4523C53.7086 41.1263 50.2139 32.9191 50.2006 32.9045C49.4343 32.0785 48.104 32.3124 46.72 32.3124C44.2196 32.3124 44.7582 32.886 44.7283 28.2657C44.7216 27.2491 44.8639 27.2855 45.8224 27.2886C46.7422 27.292 48.9538 27.4311 49.6159 27.1135C50.6998 26.5938 50.6236 25.696 50.9752 24.4166C52.5753 18.5937 55.3048 17.973 53.2601 15.9119C52.5708 15.2171 51.9276 14.571 51.2376 13.8768C50.3786 13.0125 50.6285 13.0556 52.0663 11.6031C52.413 11.253 52.7075 10.945 53.0551 10.5955C54.2533 9.39006 53.8589 9.46029 56.2652 11.9095C58.5385 14.2233 58.7468 12.8018 61.4932 11.4715C62.4176 11.0239 63.349 10.6449 64.373 10.3119C65.5044 9.94397 66.8543 9.80772 67.4048 9.28917C68.2424 8.50091 68.0125 7.22387 68.0125 5.82111C68.0125 3.26413 67.4121 3.83107 72.0459 3.79529C73.0488 3.78746 72.9662 4.04126 72.9645 4.98027C72.9625 5.9244 72.8181 8.09323 73.1617 8.77062C73.6915 9.81431 74.6337 9.77351 75.8771 10.109C81.6581 11.6687 82.1399 14.5002 84.2461 12.3729C84.9348 11.6776 85.5786 11.0323 86.2661 10.3356C87.0865 9.50422 87.0405 9.71548 88.4817 11.167C88.8289 11.5164 89.1282 11.82 89.4746 12.1703C89.6899 12.388 90.4232 12.9281 90.2102 13.3889V13.3891ZM64.2876 6.46792C64.0852 6.48499 63.7243 6.60615 63.5257 6.66971C61.0503 7.46357 60.6329 7.73187 58.5172 8.86121C58.3632 8.62925 56.9898 7.2453 56.7327 7.03931C55.231 5.83612 52.9967 5.73786 51.4537 6.97469L49.6853 8.74811C48.4582 9.98576 47.0406 10.9657 47.0406 13.1303C47.0406 14.1798 47.4725 15.2502 47.9562 15.8288C48.2086 16.1307 49.5355 17.4811 49.7976 17.658C49.1308 18.9292 47.5416 22.0682 47.4253 23.4798C45.1745 23.4798 44.0945 23.3685 42.7349 24.3752C42.1885 24.7795 41.7513 25.2773 41.454 25.9291C40.8278 27.3018 41.0136 29.4905 41.0136 31.2416C41.0136 32.848 41.4365 34.2306 42.6522 35.1515C44.2454 36.3583 45.3901 36.0282 47.3613 36.0282C47.8622 37.7028 48.7542 39.9252 49.7976 41.9143C49.4975 42.1172 48.2857 43.3705 47.9861 43.7093C46.73 45.1294 46.8051 47.533 47.8996 49.0037L51.4185 52.5691C52.9051 53.8337 55.2674 53.7324 56.7321 52.5325C57.1786 52.1667 58.3397 50.7761 58.5812 50.7761L60.5477 51.7675C61.3018 52.122 63.5845 53.0453 64.2876 53.1044C64.2876 54.8407 64.096 56.3892 65.1108 57.7721C65.8827 58.8242 67.039 59.5729 68.8399 59.5729H72.1737C74.5946 59.5729 76.4132 58.0812 76.7108 55.8704C76.8029 55.1843 76.7257 53.8597 76.7257 53.1045C78.024 52.7995 79.9703 52.0518 81.1713 51.4447C81.6533 51.2009 82.0475 50.9511 82.4962 50.7116C82.8182 50.929 83.4706 51.6618 83.7945 51.9889C84.3151 52.5138 84.6118 52.7881 85.3144 53.1076C86.6635 53.7213 88.3818 53.4963 89.4124 52.7084C90.0553 52.217 90.2186 52.0086 90.7831 51.4391C92.1425 50.068 93.973 48.641 93.973 46.701C93.973 44.5624 93.4261 44.0473 92.1297 42.7392C91.8684 42.4759 91.4682 42.1334 91.2801 41.8499C92.2645 39.9729 93.1704 38.1152 93.6524 36.0284C95.8508 36.0284 96.8501 36.2192 98.2044 35.2522C99.1819 34.554 99.9998 33.3785 99.9998 31.6946V27.749C99.9998 26.1381 99.1247 24.9774 98.1781 24.2829C96.971 23.3967 95.6642 23.4801 93.6524 23.4801L92.3278 19.7712L91.2801 17.7232C91.6293 17.1972 92.533 16.5058 92.9926 15.9579C94.3081 14.3901 94.3111 12.0136 93.0214 10.4038C92.6476 9.93738 89.8487 7.17845 89.568 6.96661C87.9757 5.76539 85.7247 5.80315 84.3409 7.03544L82.4962 8.79691L81.1713 8.12843C79.0211 7.04417 77.2813 6.67251 76.7257 6.40363C76.7257 4.66433 77.0036 3.20396 75.9305 1.77293C75.16 0.745722 73.9993 0 72.2377 0H68.8398C67.0569 0 65.9092 0.721076 65.1382 1.76395C64.1516 3.0987 64.2875 4.25071 64.2875 6.46817L64.2876 6.46792Z" fill="#4F4F4E"/>
<path fill-rule="evenodd" clip-rule="evenodd" d="M21.9072 61.1902C21.9072 67.7695 25.5704 73.7315 31.5893 76.4547C37.3414 79.0572 44.6893 77.9873 49.2671 73.5273C52.6573 70.2249 54.606 66.3088 54.606 61.3841C54.606 58.7083 50.8597 58.8493 50.8217 61.1239C50.8022 62.2761 50.67 63.4399 50.452 64.3734C49.9938 66.3351 49.0987 67.9133 48.0673 69.2768C44.542 73.9368 37.788 75.3667 32.6355 72.7471C27.8089 70.2928 25.0112 65.1554 25.7811 59.6002C26.5236 54.2415 30.3573 50.2491 35.4862 49.0162C37.6712 48.4907 39.2089 49.1805 39.8804 47.5631C40.4201 46.2636 39.6529 44.7356 37.4937 44.897C35.9686 45.0112 35.198 45.1452 33.7039 45.5361C26.9122 47.3132 21.9072 54.2034 21.9072 61.1901V61.1902Z" fill="#73D258"/>
<path fill-rule="evenodd" clip-rule="evenodd" d="M62.364 29.7537C62.364 26.648 64.2043 23.8098 66.8503 22.4427C70.1359 20.7453 73.837 21.5906 76.3893 24.1422C78.6231 26.3757 79.2965 30.1224 77.9231 33.096C76.5809 36.0022 73.7541 37.9685 70.5068 37.9685C66.0648 37.9685 62.3641 34.2716 62.3641 29.7537H62.364ZM58.7298 30.9826C59.419 37.6285 65.5228 42.4093 71.6442 41.6466C78.1616 40.8341 82.9619 35.2867 82.2848 28.5986C81.666 22.486 76.2303 17.1536 69.3041 17.8906C62.8066 18.582 58.0527 24.4565 58.7298 30.9826Z" fill="#4F4F4E"/>
</svg>
