<svg width="62" height="100" viewBox="0 0 62 100" fill="none" xmlns="http://www.w3.org/2000/svg">
<g clip-path="url(#clip0)">
<path fill-rule="evenodd" clip-rule="evenodd" d="M58.3728 78.878C58.3728 93.9865 41.937 101.808 30.4154 94.1167C29.8971 93.7705 29.121 93.1778 28.5944 92.7596C27.6659 92.0256 26.4132 90.4358 25.7008 89.5274C19.1626 81.1215 11.5378 72.1228 5.49291 63.5092C5.3377 63.2904 5.3183 63.2627 5.14646 63.0577C4.20411 61.9221 3.28116 61.1273 3.37816 59.5042C3.43637 58.5293 3.95466 57.5018 4.56165 57.0974L5.22961 56.6487C6.32717 56.02 7.89591 56.2803 8.86876 56.9783L19.2568 65.0657C19.7418 65.4646 20.2657 66.2788 21.3438 66.0129C21.7125 65.9215 22.2003 65.4673 22.3195 65.0546L22.3777 27.041C22.3721 20.1196 29.1765 21.5349 29.1903 26.1215L29.1682 59.3851C29.1682 61.4181 31.0723 61.6563 31.7901 60.7257C32.3666 59.9778 32.1255 57.4768 32.1255 56.2222V40.6096C32.1255 35.7267 38.9132 35.7017 38.916 40.6096L38.9076 59.3851C38.9076 61.4901 40.6455 61.5981 41.5074 60.6481C42.0812 60.0139 41.8539 57.1888 41.8539 56.1197C41.8539 52.857 41.8511 49.5888 41.8456 46.3262C41.8428 44.7669 41.7513 43.7919 42.8988 42.745C43.3866 42.2991 43.9021 41.9335 44.7364 41.8199C46.6516 41.5568 48.5917 42.8392 48.6305 45.3014L48.6277 55.2168C48.6527 57.956 47.9515 60.9971 49.9858 61.1937C50.615 61.2547 51.2192 60.8586 51.4576 60.2853C51.6738 59.7618 51.5823 56.369 51.5795 55.5131C51.574 53.8818 51.5823 52.2449 51.574 50.6164C51.5629 48.8106 51.9925 47.9741 53.0346 47.1626C54.6948 45.8692 58.3783 46.545 58.3783 50.3062V78.878H58.3728ZM38.9243 99.9995H41.5906C41.7791 99.9275 44.5368 99.6616 46.2358 99.1492C54.3318 96.7008 59.9831 90.1146 61.1389 81.5757C61.4576 79.2104 61.2802 58.1997 61.2802 54.6961C61.2802 53.026 61.3911 50.921 61.2553 49.3036C61.0252 46.5948 58.7858 44.1908 56.028 43.7393C54.0269 43.4125 53.054 43.9415 51.5768 44.6145C51.3523 44.1465 51.3134 43.4042 51.1139 42.925C49.6172 39.294 45.6205 37.7319 41.8206 39.8562C41.4575 38.2775 41.4742 37.9784 40.712 36.7902C39.5784 35.0204 37.4304 33.9125 35.141 34.0399C33.3422 34.1397 32.8683 34.7434 32.1033 34.9816C32.0368 32.0901 32.0978 29.1293 32.0978 26.2323C32.0978 25.4485 32.0673 24.8668 31.8899 24.1716C30.8533 20.0808 25.8671 18.0313 22.2862 20.5212C20.4154 21.8202 19.4591 23.4792 19.4619 26.5397C19.4813 38.1944 19.4176 49.8575 19.4619 61.5122C18.9963 61.3461 17.9763 60.3933 17.4636 60.0194C16.6986 59.4599 16.2773 59.086 15.5096 58.5099L11.56 55.4384C10.3627 54.469 9.00179 53.3279 6.53782 53.3944C2.749 53.4996 -0.269299 57.0669 0.625937 61.1494C1.08603 63.246 2.12539 63.7972 2.59934 64.4592C3.53337 65.7664 4.86375 67.2953 5.67307 68.4281C10.9946 75.8536 18.8799 86.1872 24.8333 93.0532C27.0811 95.6456 29.9276 97.5871 33.2203 98.7587C34.0656 99.0606 34.9803 99.3292 35.9143 99.5342C36.6183 99.6893 38.4725 99.8333 38.916 100.016L38.9243 99.9995Z" fill="#4F4F4E"/>
<path fill-rule="evenodd" clip-rule="evenodd" d="M27.197 0.000816538H24.1288C23.5135 0.252856 22.0446 0.261165 21.2547 0.405187C18.7463 0.864952 16.3295 1.66815 14.1371 2.78987C10.4037 4.70371 6.40429 8.13532 4.15096 11.7913C2.25517 14.8684 1.27401 17.1173 0.495184 20.7844C0.270682 21.8368 -0.311359 25.6313 0.201392 26.4511C0.531215 26.9801 1.50128 27.5894 2.38543 26.861C3.10051 26.2711 2.8871 25.4263 2.9647 24.2935C3.11991 22.0003 3.58278 19.8455 4.37269 17.7267C4.51404 17.3472 4.65262 17.0038 4.81615 16.6465C5.58112 14.957 6.01904 14.1704 7.09997 12.6111C8.10607 11.157 8.11716 11.2789 9.09554 10.1987C10.4869 8.66432 10.2818 8.98837 11.7369 7.73372L15.6089 5.28533C21.9531 2.13623 29.9271 2.06422 36.227 5.43767C39.1594 7.00807 39.6832 7.54815 41.7314 9.42875C42.5463 10.1766 43.3002 11.0268 44.0014 11.9741C45.6893 14.2452 46.8673 16.4388 47.6877 19.2915C48.181 21.0004 48.5302 22.8118 48.5995 24.6896C48.6439 25.839 48.5607 26.6671 49.431 27.0383C50.4732 27.4842 51.2714 26.8693 51.4682 26.1298C52.0779 23.8282 50.5563 18.1726 49.4726 15.6688C48.7575 14.0181 48.1921 12.9767 47.2553 11.5614C45.6727 9.17671 44.1788 7.57031 41.9781 5.75064C40.5202 4.54583 38.9903 3.56537 37.1638 2.66523C31.712 -0.0296496 28.0396 0.311019 27.1915 -0.00195312L27.197 0.000816538Z" fill="#73D258"/>
<path fill-rule="evenodd" clip-rule="evenodd" d="M24.2319 12.7223C25.4736 12.5561 26.8206 12.5894 28.0457 12.8193C29.6144 13.1129 30.723 13.5145 32.1116 14.2595L33.6166 15.2233C35.8034 16.791 37.7768 19.5191 38.4753 22.3885C38.8079 23.7539 38.7414 24.5959 38.9298 25.9142C39.0934 27.0553 40.4127 27.5927 41.3384 26.8171C42.4997 25.845 41.2746 21.4551 40.7924 20.1783C40.4265 19.2061 39.9775 18.3032 39.4925 17.4862C38.0984 15.1458 35.784 12.9107 33.3783 11.6671C31.5074 10.7032 29.728 10.0136 27.2862 9.79756C18.0373 8.97774 10.5567 15.8964 9.80835 24.186C9.68917 25.5126 9.54227 26.8116 10.759 27.1329C11.5212 27.3323 12.1504 26.9279 12.3305 26.7008C12.9708 25.8949 12.1809 22.7845 14.5201 18.9956C14.6532 18.7796 14.7696 18.5746 14.922 18.3724C15.7258 17.3061 16.2718 16.658 17.2917 15.7468C19.0074 14.2124 21.5268 13.0852 24.2291 12.7279L24.2319 12.7223Z" fill="#55AB3A"/>
</g>
<defs>
<clipPath id="clip0">
<rect width="61.3333" height="100" fill="white"/>
</clipPath>
</defs>
</svg>
