<svg width="75" height="100" viewBox="0 0 75 100" fill="none" xmlns="http://www.w3.org/2000/svg">
<g clip-path="url(#clip0)">
<path fill-rule="evenodd" clip-rule="evenodd" d="M19.1323 9.19658V8.66765H27.6946V12.2618C27.6946 13.04 28.5589 13.7412 29.3858 13.7412H45.0299C45.8567 13.7412 46.7211 13.04 46.7211 12.2618V8.66765H55.2833V15.4334H19.2367C19.2367 13.2355 19.1313 11.3995 19.1313 9.19658H19.1323ZM31.2887 3.48773H43.128V10.2534H31.2887V3.48773ZM27.4838 1.90194V5.1789H17.2304C16.4036 5.1789 15.5392 5.8801 15.5392 6.65931V10.2534H2.1142C0.934738 10.2534 0.000488281 10.906 0.000488281 12.05V98.307C0.000488281 99.2878 0.822263 99.9981 1.79704 99.9981H63.5963C64.5377 99.9981 65.3686 99.1895 65.3696 98.309C65.3696 97.4791 64.7525 96.2986 63.9135 96.2986H3.59461V13.7412H15.5392V17.2299C15.5392 18.384 16.5008 18.9211 17.5476 18.9211H56.7648C59.1946 18.9211 58.6677 16.0393 58.6677 13.7412H70.5069V82.4511C70.5069 85.3876 74.2064 85.3349 74.2064 82.5564V12.3672C74.2064 11.0144 73.4455 10.2534 72.0927 10.2534H58.6677C58.6677 8.04042 59.1571 5.1789 56.8712 5.1789H46.6177V1.79656C46.6177 0.596825 45.6014 0 44.503 0H29.5986C28.3806 0 27.4848 0.71842 27.4848 1.90295L27.4838 1.90194Z" fill="#4F4F4E"/>
<path fill-rule="evenodd" clip-rule="evenodd" d="M23.2124 28.1658C23.2124 28.9298 23.9328 30.0687 25.1154 30.0687H49.2164C51.5185 30.0687 51.6189 26.4746 49.3217 26.4746H25.009C24.1416 26.4746 23.2124 27.2761 23.2124 28.1658Z" fill="#4F4F4E"/>
<path d="M14.6392 32.3287C16.8872 32.3287 18.7096 30.5064 18.7096 28.2584C18.7096 26.0104 16.8872 24.188 14.6392 24.188C12.3912 24.188 10.5688 26.0104 10.5688 28.2584C10.5688 30.5064 12.3912 32.3287 14.6392 32.3287Z" fill="#73D258"/>
<path fill-rule="evenodd" clip-rule="evenodd" d="M23.2124 43.0007C23.2124 43.7648 23.9328 44.9037 25.1154 44.9037H49.2164C51.5185 44.9037 51.6189 41.3096 49.3217 41.3096H25.009C24.1416 41.3096 23.2124 42.1111 23.2124 43.0007Z" fill="#4F4F4E"/>
<path fill-rule="evenodd" clip-rule="evenodd" d="M23.2124 57.8352C23.2124 58.5992 23.9328 59.7382 25.1154 59.7382H49.2164C51.5185 59.7382 51.6189 56.144 49.3217 56.144H25.009C24.1416 56.144 23.2124 56.9456 23.2124 57.8352Z" fill="#4F4F4E"/>
<path fill-rule="evenodd" clip-rule="evenodd" d="M23.2124 72.6702C23.2124 73.4342 23.9328 74.5731 25.1154 74.5731H49.2164C51.5185 74.5731 51.6189 70.979 49.3217 70.979H25.009C24.1416 70.979 23.2124 71.7805 23.2124 72.6702Z" fill="#4F4F4E"/>
<path fill-rule="evenodd" clip-rule="evenodd" d="M23.2124 87.5047C23.2124 88.2687 23.9328 89.4076 25.1154 89.4076H49.2164C51.5185 89.4076 51.6189 85.8135 49.3217 85.8135H25.009C24.1416 85.8135 23.2124 86.615 23.2124 87.5047Z" fill="#4F4F4E"/>
<path d="M14.6392 47.1632C16.8872 47.1632 18.7096 45.3408 18.7096 43.0928C18.7096 40.8448 16.8872 39.0225 14.6392 39.0225C12.3912 39.0225 10.5688 40.8448 10.5688 43.0928C10.5688 45.3408 12.3912 47.1632 14.6392 47.1632Z" fill="#73D258"/>
<path d="M14.6392 61.9977C16.8872 61.9977 18.7096 60.1753 18.7096 57.9273C18.7096 55.6793 16.8872 53.8569 14.6392 53.8569C12.3912 53.8569 10.5688 55.6793 10.5688 57.9273C10.5688 60.1753 12.3912 61.9977 14.6392 61.9977Z" fill="#73D258"/>
<path d="M14.6392 76.8321C16.8872 76.8321 18.7096 75.0098 18.7096 72.7618C18.7096 70.5138 16.8872 68.6914 14.6392 68.6914C12.3912 68.6914 10.5688 70.5138 10.5688 72.7618C10.5688 75.0098 12.3912 76.8321 14.6392 76.8321Z" fill="#73D258"/>
<path d="M14.6392 91.6666C16.8872 91.6666 18.7096 89.8443 18.7096 87.5962C18.7096 85.3482 16.8872 83.5259 14.6392 83.5259C12.3912 83.5259 10.5688 85.3482 10.5688 87.5962C10.5688 89.8443 12.3912 91.6666 14.6392 91.6666Z" fill="#73D258"/>
</g>
<defs>
<clipPath id="clip0">
<rect width="74.207" height="100" fill="white"/>
</clipPath>
</defs>
</svg>
