<svg width="95" height="100" viewBox="0 0 95 100" fill="none" xmlns="http://www.w3.org/2000/svg">
<g clip-path="url(#clip0)">
<path fill-rule="evenodd" clip-rule="evenodd" d="M18.8125 9.16409V8.63752H27.2316V12.2188C27.2316 12.9943 28.0818 13.693 28.8944 13.693H44.2771C45.0898 13.693 45.94 12.9943 45.94 12.2188V8.63752H54.3591V15.3789H18.9158C18.9158 13.1889 18.8117 11.3595 18.8117 9.16409H18.8125ZM30.7654 3.47579H42.4069V10.2172H30.7654V3.47579ZM27.0234 1.8961V5.16096H16.9415C16.1288 5.16096 15.2786 5.85968 15.2786 6.63596V10.2172H2.07837C0.919045 10.2172 0 10.8671 0 12.0078V97.9597C0 98.9368 0.808086 99.6448 1.76692 99.6448H42.4069C43.3321 99.6448 44.1501 98.8391 44.1501 97.9612C44.1501 97.1345 43.544 95.9581 42.7184 95.9581H3.53385V13.693H15.2786V17.1688C15.2786 18.3189 16.2245 18.854 17.2537 18.854H55.8153C58.2051 18.854 57.6863 15.9823 57.6863 13.693H69.327V51.0861C69.327 54.0121 72.965 53.9601 72.965 51.1916V12.3235C72.965 10.9757 72.2166 10.2172 70.8866 10.2172H57.6863C57.6863 8.01247 58.1676 5.16096 55.9194 5.16096H45.8375V1.79063C45.8375 0.594809 44.8381 0 43.7583 0H29.1033C27.9057 0 27.025 0.715787 27.025 1.8961H27.0234Z" fill="#4F4F4E"/>
<path fill-rule="evenodd" clip-rule="evenodd" d="M55.8155 94.3787L57.7906 87.1107L63.1173 92.457L55.8163 94.3787H55.8155ZM66.5211 90.9029L59.4274 83.766L76.7331 66.1753L83.8008 73.2859L66.5211 90.9022V90.9029ZM79.1758 63.7534C79.4864 63.2967 82.9223 59.9116 83.5927 59.2237C85.4813 57.2889 86.3513 59.0175 88.6861 61.3835C89.2141 61.9186 89.6656 62.3762 90.1928 62.9113C90.9887 63.7178 91.4662 63.893 91.4662 64.9919C91.4662 66.0039 89.9824 67.1804 89.0496 68.1257C88.3914 68.7926 86.9077 70.4576 86.2695 70.8912L79.1758 63.7542V63.7534ZM50.4106 98.1709C50.4106 99.6428 51.9449 100.492 53.1601 99.6932C54.4067 98.8751 53.1104 98.934 55.4665 98.2392L66.4997 95.2C67.5878 94.9022 67.4287 94.9891 68.1579 94.2477L91.0239 71.0742C92.7938 69.2804 94.9992 67.6666 94.9992 64.7802C94.9992 62.2373 93.0043 60.8096 91.1279 58.9081C88.9945 56.746 87.8282 54.8794 85.0214 54.8794C82.4027 54.8794 80.8822 57.0198 79.175 58.7507L56.2563 81.9769C55.4443 82.7997 55.5278 82.5151 55.2576 83.4923C54.2108 87.2759 53.2489 91.2829 52.1646 94.9991C51.5218 97.2 51.6182 96.0693 50.7496 97.2512C50.6165 97.4327 50.4106 97.9243 50.4106 98.1709Z" fill="#4F4F4E"/>
<path fill-rule="evenodd" clip-rule="evenodd" d="M10.1865 39.2894C10.1865 40.5069 11.163 41.1855 12.369 41.1855H60.9085C61.878 41.1855 62.6769 40.4976 62.8292 39.5468C62.9654 38.6946 62.139 37.605 61.324 37.605H11.8494C11.44 37.605 11.2142 37.6872 10.925 37.9315L10.7122 38.1377C10.4697 38.3991 10.1865 38.7985 10.1865 39.2901V39.2894Z" fill="#73D258"/>
<path fill-rule="evenodd" clip-rule="evenodd" d="M10.1863 59.8292C10.1863 60.8118 10.9454 61.7253 11.9532 61.7253H56.023C58.285 61.7253 58.4503 58.144 55.9189 58.144H11.9525C11.0985 58.144 10.1855 58.9226 10.1855 59.8292H10.1863Z" fill="#4F4F4E"/>
<path fill-rule="evenodd" clip-rule="evenodd" d="M10.1863 70.2574C10.1863 71.285 10.8429 72.0481 11.8492 72.0481H49.3708C51.6061 72.0481 51.5724 68.4668 49.1627 68.4668H12.1606C11.0526 68.4668 10.1855 69.1717 10.1855 70.2574H10.1863Z" fill="#4F4F4E"/>
<path fill-rule="evenodd" clip-rule="evenodd" d="M10.1865 49.6119C10.1865 50.3735 10.8944 51.508 12.0575 51.508H35.7553C38.0188 51.508 38.1175 47.9268 35.8593 47.9268H11.9534C11.101 47.9268 10.1865 48.7255 10.1865 49.6119Z" fill="#73D258"/>
<path fill-rule="evenodd" clip-rule="evenodd" d="M10.1863 29.0724C10.1863 30.179 11.0503 30.9685 12.2647 30.9685H33.6759C36.3274 30.9685 36.4231 27.2817 33.4678 27.2817H12.368C11.3081 27.2817 10.1855 27.8261 10.1855 29.0724H10.1863Z" fill="#73D258"/>
<path fill-rule="evenodd" clip-rule="evenodd" d="M10.1865 80.4747C10.1865 81.4371 11.003 82.2654 11.9534 82.2654H34.0924C36.209 82.2654 36.5496 78.6841 33.6769 78.6841H12.0575C11.0727 78.6841 10.1865 79.5154 10.1865 80.4747Z" fill="#4F4F4E"/>
<path fill-rule="evenodd" clip-rule="evenodd" d="M47.4995 49.7174C47.4995 50.7333 48.378 51.508 49.3705 51.508H61.0112C63.4255 51.508 63.4187 47.9268 61.1153 47.9268H49.2664C48.3168 47.9268 47.4995 48.7542 47.4995 49.7174Z" fill="#4F4F4E"/>
<path fill-rule="evenodd" clip-rule="evenodd" d="M40.7444 49.7171C40.7444 51.1448 42.581 52.1087 43.7265 50.9494C44.9471 49.714 43.7701 47.9272 42.6146 47.9272C41.5869 47.9272 40.7437 48.6872 40.7437 49.7179L40.7444 49.7171Z" fill="#4F4F4E"/>
</g>
<defs>
<clipPath id="clip0">
<rect width="95" height="100" fill="white"/>
</clipPath>
</defs>
</svg>
