<svg width="160" height="118" viewBox="0 0 160 118" fill="none" xmlns="http://www.w3.org/2000/svg">
<g clip-path="url(#clip0)">
<path d="M67.9277 22.1218L70.1844 19.4822C70.7172 18.8574 71.6654 18.7746 72.3023 19.2975C77.2165 23.3444 81.0915 28.3514 83.7362 33.9178C86.3823 39.4865 87.8004 45.6171 87.8004 51.9075C87.8004 52.7237 87.1261 53.3854 86.2944 53.3854H82.7792C82.7985 52.8948 82.8113 52.4026 82.8113 51.9073C82.8113 51.4121 82.7987 50.9201 82.7792 50.4295H84.7601C84.5574 45.0935 83.261 39.9096 81.0067 35.1649C78.7508 30.4172 75.5378 26.1096 71.5049 22.5292L70.2316 24.0183C69.49 23.3569 68.7206 22.7255 67.9277 22.1218Z" fill="#FECC00"/>
<path d="M26.1612 18.7621L24.4185 15.1943C24.0613 14.4611 24.3772 13.5819 25.1245 13.2313C30.9042 10.5125 37.151 9.11771 43.4129 9.05221C49.6746 8.98692 55.947 10.249 61.7785 12.8437C62.5355 13.1786 62.8727 14.0523 62.5315 14.7952L61.0731 17.9521C60.1728 17.5262 59.2519 17.1353 58.3143 16.7777L59.1592 14.9488C54.1178 12.9238 48.7695 11.9406 43.4366 11.9964C38.1021 12.0524 32.7772 13.1467 27.785 15.275L28.854 17.4633C27.9373 17.8631 27.0387 18.2954 26.1617 18.7619L26.1612 18.7621Z" fill="#C5C6C6"/>
<path d="M6.09913 54.0627L1.52955 54.1371C0.701221 54.1499 0.0189538 53.5011 0.00594221 52.6882C-0.100039 46.3978 1.21392 40.2458 3.76481 34.6368C6.31592 29.0264 10.1048 23.957 14.947 19.8335C15.5739 19.3011 16.5222 19.3684 17.0647 19.9836L19.764 23.0364C18.9965 23.6684 18.2547 24.3294 17.5401 25.0177L15.7978 23.0473C11.8225 26.695 8.68108 31.0549 6.50627 35.8377C4.33061 40.6215 3.12158 45.8281 3.0093 51.168L6.0454 51.1186C6.03995 51.381 6.03533 51.6435 6.03533 51.9072C6.03533 52.6307 6.05842 53.3491 6.09934 54.0627H6.09913Z" fill="#FECC00"/>
<path d="M30.0347 86.8423L28.2538 90.8807C27.9258 91.6267 27.0433 91.9705 26.2832 91.6485C20.3984 89.1488 15.2278 85.4362 11.072 80.8421C6.91358 76.2451 3.76961 70.7689 1.94044 64.7451C1.70329 63.9641 2.15639 63.1419 2.95219 62.9091L7.32869 61.6289C7.58808 62.5846 7.88483 63.525 8.21725 64.4491L5.27958 65.3083C7.02775 70.3704 9.77885 74.9766 13.3193 78.8905C16.863 82.8082 21.1975 86.036 26.1082 88.3376L27.3014 85.6319C28.1934 86.0689 29.105 86.4728 30.0349 86.8421L30.0347 86.8423Z" fill="#C5C6C6"/>
<path d="M56.2861 75.2723C58.4729 74.4753 59.8473 72.8503 59.8473 70.367C59.8473 66.7801 57.0045 64.8793 52.4125 64.8793H43.3218V86.3399H53.0059C58.2855 86.3399 60.9407 84.2245 60.9407 80.5455C60.9407 77.6942 59.3474 75.8855 56.2861 75.2723ZM45.6022 66.6882H52.2874C55.6301 66.6882 57.5357 68.0677 57.5357 70.643C57.5357 73.249 55.6301 74.598 52.2874 74.598H45.6022V66.6884V66.6882ZM53.0057 84.5312H45.6022V76.3454H53.0057C56.692 76.3454 58.6601 77.6023 58.6601 80.3923C58.6601 83.2129 56.692 84.5312 53.0057 84.5312Z" fill="#5B5B5B"/>
<path d="M70.1783 84.3778V76.4068H81.4871V74.4753H70.1783V66.8414H82.8617V64.8793H67.8667V86.3399H83.3301V84.3778H70.1783Z" fill="#5B5B5B"/>
<path d="M107.347 84.3776V64.8789H92.6018L92.3518 71.8385C92.1382 78.6752 91.4509 84.1937 88.3376 84.3776H87.2442L87.2129 91.153H89.3684L89.3997 86.3398H108.471V91.153H110.627V84.3776H107.347ZM94.4135 72.0529L94.6009 66.8411H105.066V84.3774H91.6072C93.695 82.8138 94.2261 77.6327 94.4135 72.0526V72.0529Z" fill="#5B5B5B"/>
<path d="M158.094 64.8793L148.691 80.7908L139.194 64.8793H137.289V86.3399H139.507V69.2633L148.097 83.6112H149.191L157.782 69.1714V86.3399H160V64.8793H158.094Z" fill="#5B5B5B"/>
<path d="M121.24 62.4268C121.958 62.4268 122.583 61.8748 122.583 61.1084C122.583 60.3727 121.958 59.7903 121.24 59.7903C120.49 59.7903 119.896 60.3727 119.896 61.1084C119.896 61.8748 120.49 62.4268 121.24 62.4268ZM126.8 62.4268C127.55 62.4268 128.144 61.8748 128.144 61.1084C128.144 60.3727 127.55 59.7903 126.8 59.7903C126.082 59.7903 125.457 60.3727 125.457 61.1084C125.457 61.8748 126.082 62.4268 126.8 62.4268ZM118.803 84.378V76.407H130.112V74.4755H118.803V66.8417H131.486V64.8795H116.491V86.3402H131.955V84.3782H118.803L118.803 84.378Z" fill="#5B5B5B"/>
<path d="M43.3203 96.5391V118H45.6009V98.5012H59.44V118H61.7203V96.5391H43.3203Z" fill="#5B5B5B"/>
<path d="M77.2775 96.5391H69.0928V118H71.4044V111.224H77.2775C82.838 111.224 86.2118 108.465 86.2118 103.897C86.2118 99.2985 82.838 96.5393 77.2775 96.5393V96.5391ZM77.2149 109.231H71.4044V98.5012H77.2149C81.5883 98.5012 83.9001 100.463 83.9001 103.897C83.9001 107.269 81.5883 109.231 77.2149 109.231Z" fill="#5B5B5B"/>
<path d="M90.9614 118H93.0544L107.05 100.249V118H109.33V96.5391H107.237L93.242 114.321V96.5391H90.9614V118Z" fill="#5B5B5B"/>
<path d="M121.45 94.0863C122.169 94.0863 122.793 93.5343 122.793 92.768C122.793 92.0323 122.169 91.4498 121.45 91.4498C120.7 91.4498 120.107 92.0323 120.107 92.768C120.107 93.5343 120.7 94.0863 121.45 94.0863ZM127.011 94.0863C127.76 94.0863 128.354 93.5343 128.354 92.768C128.354 92.0323 127.76 91.4498 127.011 91.4498C126.292 91.4498 125.667 92.0323 125.667 92.768C125.667 93.5343 126.292 94.0863 127.011 94.0863ZM119.013 116.038V108.067H130.322V106.135H119.013V98.5012H131.697V96.5391H116.702V118H132.165V116.038H119.013L119.013 116.038Z" fill="#5B5B5B"/>
<path d="M158.095 96.5391L148.692 112.45L139.195 96.5391H137.29V118H139.507V100.923L148.098 115.271H149.192L157.782 100.831V118H160V96.5391H158.095Z" fill="#5B5B5B"/>
<path d="M61.6384 29.3718C62.2105 28.7301 63.2046 28.665 63.8584 29.2264C64.5123 29.7879 64.5786 30.7635 64.0065 31.4051L45.0546 52.6301C44.4825 53.2718 43.4884 53.3369 42.8346 52.7755C42.7914 52.7384 42.7509 52.6995 42.7129 52.6591L42.7112 52.6606L28.3381 37.3416C27.749 36.7132 27.7901 35.7349 28.4304 35.1568C29.0707 34.5787 30.0676 34.619 30.6567 35.2474L43.8428 49.3014L61.6382 29.3716L61.6384 29.3718Z" fill="#54AF3A"/>
<path d="M34.4125 3.94669C33.6003 4.10919 32.8075 3.59492 32.6419 2.79786C32.4763 2.0008 33.0003 1.22269 33.8125 1.06019C35.5609 0.708824 37.3239 0.444786 39.0939 0.268692C40.8916 0.0901258 42.6702 0.00012207 44.4232 0.00012207C46.015 0.00012207 47.6446 0.0763266 49.3061 0.227294C50.9458 0.376408 52.5645 0.597607 54.1559 0.889862C54.9712 1.03959 55.5086 1.81008 55.3561 2.61023C55.2035 3.41038 54.4184 3.93784 53.6031 3.78811C52.0763 3.5078 50.5517 3.29813 49.0356 3.16014C47.5426 3.02441 46.0033 2.95583 44.4232 2.95583C42.7124 2.95583 41.032 3.03801 39.3884 3.20133C37.7176 3.36733 36.0568 3.61613 34.4129 3.94649L34.4125 3.94669Z" fill="#5B5B5B"/>
</g>
<defs>
<clipPath id="clip0">
<rect width="160" height="118" fill="white"/>
</clipPath>
</defs>
</svg>
